<?xml version="1.0" encoding="UTF-8" standalone="no"?>
<!DOCTYPE svg PUBLIC "-//W3C//DTD SVG 1.1//EN" "http://www.w3.org/Graphics/SVG/1.1/DTD/svg11.dtd">
<svg width="100%" height="100%" viewBox="0 0 980 985" version="1.1" xmlns="http://www.w3.org/2000/svg" xmlns:xlink="http://www.w3.org/1999/xlink" xml:space="preserve" xmlns:serif="http://www.serif.com/" style="fill-rule:evenodd;clip-rule:evenodd;stroke-linejoin:round;stroke-miterlimit:2;">
    <g transform="matrix(1,0,0,1,-825.374,-707.513)">
        <path d="M1538.85,1268.9L1802.61,1268.9C1769.06,1508.15 1563.34,1692.5 1314.9,1692.5C1066.46,1692.5 860.743,1508.15 827.196,1268.9L1081.95,1268.9C1109.08,1369.63 1201.14,1443.86 1310.4,1443.86C1419.65,1443.86 1511.71,1369.63 1538.85,1268.9ZM1310.4,1070.34C1385.99,1070.34 1447.35,1131.71 1447.35,1207.3C1447.35,1282.89 1385.99,1344.26 1310.4,1344.26C1234.81,1344.26 1173.44,1282.89 1173.44,1207.3C1173.44,1131.71 1234.81,1070.34 1310.4,1070.34ZM1081.95,1145.7L825.374,1145.7C852.441,899.398 1061.44,707.513 1314.9,707.513C1568.36,707.513 1777.36,899.398 1804.43,1145.7L1538.85,1145.7C1511.71,1044.97 1419.65,970.737 1310.4,970.737C1201.14,970.737 1109.08,1044.96 1081.95,1145.7Z" style="fill:white;"/>
    </g>
</svg>
