<?xml version="1.0" encoding="UTF-8" standalone="no"?>
<!DOCTYPE svg PUBLIC "-//W3C//DTD SVG 1.1//EN" "http://www.w3.org/Graphics/SVG/1.1/DTD/svg11.dtd">
<svg width="100%" height="100%" viewBox="0 0 980 985" version="1.1" xmlns="http://www.w3.org/2000/svg" xmlns:xlink="http://www.w3.org/1999/xlink" xml:space="preserve" xmlns:serif="http://www.serif.com/" style="fill-rule:evenodd;clip-rule:evenodd;stroke-linejoin:round;stroke-miterlimit:2;">
    <path d="M713.471,561.383L977.234,561.383C943.687,800.636 737.967,984.99 489.528,984.99C241.09,984.99 35.37,800.636 1.822,561.383L256.575,561.383C283.709,662.117 375.766,736.346 485.023,736.346C594.28,736.346 686.337,662.117 713.471,561.383ZM918.138,604.018C869.567,797.819 695.976,941.372 489.528,941.372C283.08,941.372 109.489,797.819 60.918,604.018L213.059,604.018C325.253,860.239 660.786,850.235 763.781,604.018L918.138,604.018ZM485.023,362.828C560.611,362.828 621.98,424.197 621.98,499.785C621.98,575.373 560.611,636.742 485.023,636.742C409.435,636.742 348.067,575.373 348.067,499.785C348.067,424.197 409.435,362.828 485.023,362.828ZM256.575,438.187L0,438.187C27.067,191.885 236.066,0 489.528,0C742.99,0 951.988,191.884 979.056,438.187L713.471,438.187C686.337,337.452 594.28,263.224 485.023,263.224C375.766,263.224 283.71,337.452 256.575,438.187Z" style="fill:white;"/>
</svg>
